<?xml version="1.0" standalone="no"?>
<!DOCTYPE svg PUBLIC "-//W3C//DTD SVG 20010904//EN"
 "http://www.w3.org/TR/2001/REC-SVG-20010904/DTD/svg10.dtd">
<svg version="1.0" xmlns="http://www.w3.org/2000/svg"
 width="1752.000000pt" height="1574.000000pt" viewBox="0 0 1752.000000 1574.000000"
 preserveAspectRatio="xMidYMid meet">
<metadata>
Created by potrace 1.16, written by Peter Selinger 2001-2019
</metadata>
<g transform="translate(0.000000,1574.000000) scale(0.100000,-0.100000)"
fill="#000000" stroke="none">
<path d="M8340 12909 c-221 -18 -325 -30 -535 -64 -550 -89 -1082 -261 -1610
-520 -957 -469 -1743 -1163 -2337 -2065 -262 -397 -522 -937 -659 -1366 -22
-71 -47 -149 -56 -174 -21 -63 -98 -376 -122 -495 -79 -392 -114 -747 -114
-1165 0 -367 16 -579 70 -920 54 -347 114 -591 229 -938 140 -423 285 -735
553 -1197 70 -120 264 -398 390 -560 223 -285 488 -564 802 -841 198 -175 548
-428 804 -581 208 -125 495 -273 678 -349 34 -14 80 -34 102 -44 22 -10 78
-32 125 -50 47 -17 103 -38 125 -47 169 -65 512 -163 725 -209 446 -96 801
-134 1260 -134 468 0 828 39 1285 139 211 47 620 166 720 211 11 5 58 23 105
40 47 18 103 40 125 50 22 9 105 46 184 81 335 148 752 392 1061 623 102 76
281 219 339 270 126 112 166 149 251 232 225 220 367 376 535 589 138 176 331
451 406 580 268 462 413 774 553 1197 160 482 243 894 287 1423 15 179 15 691
1 860 -50 559 -131 955 -309 1495 -80 246 -306 736 -463 1010 -459 795 -1133
1501 -1915 2005 -364 235 -803 450 -1220 597 -646 229 -1250 329 -1965 326
-173 0 -358 -4 -410 -9z m960 -364 c239 -25 414 -53 665 -106 140 -29 471
-121 570 -159 28 -10 84 -30 125 -45 90 -32 78 -27 265 -106 537 -226 1047
-549 1505 -954 104 -92 359 -348 453 -455 155 -175 169 -194 291 -355 521
-690 884 -1524 1024 -2355 55 -322 71 -495 79 -825 12 -539 -43 -1020 -175
-1525 -295 -1130 -964 -2162 -1877 -2897 -675 -543 -1480 -928 -2295 -1097
-283 -59 -369 -72 -710 -107 -150 -16 -750 -16 -900 0 -341 35 -427 48 -710
107 -551 114 -1121 337 -1625 634 -1078 635 -1909 1614 -2358 2775 -203 527
-318 1053 -358 1645 -14 213 -6 673 15 880 94 898 386 1724 874 2470 91 139
279 396 359 490 182 214 431 472 593 615 458 405 968 728 1505 954 187 79 175
74 265 106 41 15 98 35 125 45 99 38 430 130 570 159 318 67 584 105 855 121
191 12 698 3 870 -15z"/>
<path d="M8774 11547 c-2 -7 -3 -87 -2 -177 l3 -165 170 -6 c833 -31 1660
-329 2324 -837 139 -106 147 -112 280 -233 692 -626 1145 -1446 1306 -2364 79
-455 81 -882 5 -1397 -22 -153 -87 -414 -144 -590 -64 -194 -95 -271 -196
-492 -10 -22 -16 -45 -13 -50 4 -11 283 -149 300 -149 28 -1 184 382 270 658
215 696 252 1496 102 2215 -6 30 -15 73 -19 95 -11 54 -45 182 -76 285 -274
919 -838 1728 -1619 2320 -351 267 -748 478 -1220 651 -334 122 -770 209
-1191 239 -194 14 -273 13 -280 -3z"/>
<path d="M8628 9893 c-73 -87 -172 -203 -218 -258 -47 -55 -87 -102 -90 -105
-3 -3 -66 -77 -140 -164 -74 -88 -178 -210 -230 -271 -52 -61 -156 -183 -230
-271 -74 -87 -139 -164 -145 -170 -5 -6 -119 -139 -251 -295 -133 -156 -377
-443 -543 -638 -165 -195 -301 -358 -301 -363 0 -4 1031 -8 2290 -8 1334 0
2290 4 2290 9 0 5 -111 139 -246 297 -136 159 -277 325 -314 369 -98 116 -484
570 -540 635 -26 30 -90 105 -141 166 -52 61 -155 182 -229 270 -74 87 -137
161 -140 164 -3 3 -82 95 -175 205 -337 398 -498 585 -505 585 -4 0 -68 -71
-142 -157z m279 -541 c67 -81 140 -167 161 -192 41 -48 307 -360 532 -625 74
-87 203 -238 285 -334 83 -97 200 -234 260 -306 60 -71 120 -141 132 -155 17
-18 19 -26 10 -32 -16 -10 -3018 -10 -3034 0 -8 5 -4 16 15 38 15 17 72 84
127 149 55 65 108 127 117 138 23 26 478 561 598 702 52 62 156 184 230 271
74 87 144 169 155 181 11 13 74 88 140 167 66 80 127 145 135 145 8 0 70 -66
137 -147z"/>
<path d="M5147 9728 c-428 -589 -697 -1217 -811 -1898 -96 -573 -89 -1087 24
-1675 113 -592 402 -1244 774 -1750 499 -677 1176 -1208 1931 -1515 72 -29
139 -56 150 -61 59 -25 298 -99 450 -139 628 -163 1363 -180 2005 -44 69 14
136 28 150 31 159 33 548 160 698 229 29 13 55 24 58 24 12 0 274 129 274 135
0 12 -142 279 -156 294 -11 12 -23 9 -80 -19 -611 -295 -1193 -430 -1848 -430
-651 0 -1264 144 -1846 435 -58 29 -121 61 -140 72 -19 11 -62 36 -95 55 -160
91 -399 259 -560 392 -219 182 -497 474 -677 711 -253 335 -487 785 -621 1200
-27 82 -91 311 -100 355 -67 338 -82 453 -98 724 -31 557 66 1163 274 1706 66
172 200 446 305 620 60 101 240 367 278 411 8 8 14 18 14 22 0 6 -266 217
-274 217 -2 0 -38 -46 -79 -102z"/>
<path d="M6480 6753 c0 -7 100 -129 179 -218 14 -16 76 -88 136 -160 90 -106
262 -308 379 -445 11 -14 70 -84 131 -155 60 -72 112 -132 115 -135 3 -3 65
-75 137 -160 72 -85 251 -297 399 -470 147 -173 306 -360 353 -416 385 -452
455 -534 461 -534 6 0 76 82 461 534 47 56 206 243 353 416 148 173 327 385
399 470 72 85 134 157 137 160 3 3 55 64 115 135 60 72 112 132 115 135 3 3
28 32 56 65 106 126 409 482 454 535 131 152 200 236 200 243 0 4 -1030 7
-2290 7 -1259 0 -2290 -3 -2290 -7z m3813 -350 c3 -5 -48 -69 -112 -144 -64
-74 -177 -207 -251 -294 -74 -88 -177 -209 -229 -270 -51 -60 -114 -135 -140
-165 -25 -30 -62 -73 -82 -95 -19 -22 -84 -98 -144 -170 -60 -71 -112 -132
-115 -135 -3 -3 -43 -50 -90 -105 -232 -275 -353 -415 -360 -415 -7 0 -128
140 -360 415 -47 55 -87 102 -90 105 -3 3 -55 64 -115 135 -60 72 -125 148
-144 170 -20 22 -57 65 -82 95 -26 30 -89 105 -140 165 -52 61 -155 182 -229
270 -74 87 -187 220 -251 294 -64 75 -115 139 -112 144 2 4 688 7 1523 7 835
0 1521 -3 1523 -7z"/>
<path d="M12009 4468 c-169 -214 -465 -509 -676 -672 -36 -28 -60 -53 -56 -60
29 -48 198 -266 207 -266 24 0 285 223 441 376 192 189 465 509 465 544 -1 12
-240 198 -268 208 -4 1 -55 -57 -113 -130z"/>
</g>
</svg>
